<svg width="40" height="40" viewBox="0 0 40 40" fill="none" xmlns="http://www.w3.org/2000/svg">
<path d="M25.9286 23.1579C25.8477 23.1579 25.7655 23.1397 25.6907 23.102C25.5115 23.012 25.3975 22.8308 25.3975 22.6313V17.3687C25.3975 17.1692 25.5115 16.9868 25.6907 16.898C25.8685 16.8092 26.0869 16.8287 26.2464 16.9479L29.7843 19.5786C29.918 19.6783 29.9965 19.834 29.9965 19.9994C29.9965 20.1648 29.918 20.3217 29.7843 20.4214L26.2464 23.0521C26.1531 23.1214 26.0415 23.1567 25.9286 23.1567V23.1579ZM26.4598 18.4219V21.5793L28.5833 20.0006L26.4598 18.4219Z" fill="#64A480"/>
<path d="M25.9286 23.1579C25.8477 23.1579 25.7655 23.1397 25.6907 23.102C25.5115 23.012 25.3975 22.8308 25.3975 22.6313V17.3687C25.3975 17.1692 25.5115 16.9868 25.6907 16.898C25.8685 16.8092 26.0869 16.8287 26.2464 16.9479L29.7843 19.5786C29.918 19.6783 29.9965 19.834 29.9965 19.9994C29.9965 20.1648 29.918 20.3217 29.7843 20.4214L26.2464 23.0521C26.1531 23.1214 26.0415 23.1567 25.9286 23.1567V23.1579ZM26.4598 18.4219V21.5793L28.5833 20.0006L26.4598 18.4219Z" fill="white"/>
<path d="M25.3936 20.5271H19.0243C18.7312 20.5271 18.4932 20.2924 18.4932 20.0005C18.4932 19.7086 18.7299 19.4739 19.0243 19.4739H25.3936C25.6868 19.4739 25.9248 19.7086 25.9248 20.0005C25.9248 20.2924 25.6881 20.5271 25.3936 20.5271Z" fill="#64A480"/>
<path d="M25.3936 20.5271H19.0243C18.7312 20.5271 18.4932 20.2924 18.4932 20.0005C18.4932 19.7086 18.7299 19.4739 19.0243 19.4739H25.3936C25.6868 19.4739 25.9248 19.7086 25.9248 20.0005C25.9248 20.2924 25.6881 20.5271 25.3936 20.5271Z" fill="white"/>
<path d="M20.0856 29.9992C17.3376 29.9992 14.77 28.9228 12.8539 26.9696C10.9401 25.0163 9.92683 22.4391 10.0041 19.7123C10.1562 14.4193 14.7627 10.002 20.0941 10.002C20.1383 10.002 20.1825 10.002 20.2254 10.002C23.0236 10.0384 25.7065 11.2535 27.5884 13.3332C27.7846 13.5497 27.7662 13.8817 27.5479 14.0763C27.3295 14.2709 26.9946 14.2527 26.7983 14.0362C25.1152 12.1741 22.7133 11.0868 20.2107 11.054C20.1714 11.054 20.1322 11.054 20.0929 11.054C15.3221 11.054 11.2014 15.0067 11.0665 19.7403C10.9966 22.1813 11.9019 24.4885 13.6157 26.2362C15.3307 27.9839 17.6284 28.9472 20.0856 28.9472C22.5427 28.9472 25.0821 27.8599 26.7983 25.965C26.9958 25.7485 27.3307 25.7315 27.5479 25.9248C27.765 26.1194 27.7846 26.4527 27.5884 26.668C25.6709 28.7854 22.9365 30.0004 20.0856 30.0004V29.9992Z" fill="#64A480"/>
<path d="M20.0856 29.9992C17.3376 29.9992 14.77 28.9228 12.8539 26.9696C10.9401 25.0163 9.92683 22.4391 10.0041 19.7123C10.1562 14.4193 14.7627 10.002 20.0941 10.002C20.1383 10.002 20.1825 10.002 20.2254 10.002C23.0236 10.0384 25.7065 11.2535 27.5884 13.3332C27.7846 13.5497 27.7662 13.8817 27.5479 14.0763C27.3295 14.2709 26.9946 14.2527 26.7983 14.0362C25.1152 12.1741 22.7133 11.0868 20.2107 11.054C20.1714 11.054 20.1322 11.054 20.0929 11.054C15.3221 11.054 11.2014 15.0067 11.0665 19.7403C10.9966 22.1813 11.9019 24.4885 13.6157 26.2362C15.3307 27.9839 17.6284 28.9472 20.0856 28.9472C22.5427 28.9472 25.0821 27.8599 26.7983 25.965C26.9958 25.7485 27.3307 25.7315 27.5479 25.9248C27.765 26.1194 27.7846 26.4527 27.5884 26.668C25.6709 28.7854 22.9365 30.0004 20.0856 30.0004V29.9992Z" fill="white"/>
</svg>
